<?xml version="1.0" encoding="UTF-8" standalone="no"?>
<!-- Created with Inkscape (http://www.inkscape.org/) -->

<svg
   width="48"
   height="48"
   viewBox="0 0 48 48"
   version="1.1"
   id="svg1"
   inkscape:version="1.4 (e7c3feb, 2024-10-09)"
   sodipodi:docname="io.github.mukonqi.nottodbox_about_dark.svg"
   xmlns:inkscape="http://www.inkscape.org/namespaces/inkscape"
   xmlns:sodipodi="http://sodipodi.sourceforge.net/DTD/sodipodi-0.dtd"
   xmlns="http://www.w3.org/2000/svg"
   xmlns:svg="http://www.w3.org/2000/svg">
  <sodipodi:namedview
     id="namedview1"
     pagecolor="#505050"
     bordercolor="#eeeeee"
     borderopacity="1"
     inkscape:showpageshadow="0"
     inkscape:pageopacity="0"
     inkscape:pagecheckerboard="0"
     inkscape:deskcolor="#505050"
     inkscape:document-units="px"
     inkscape:zoom="16.5625"
     inkscape:cx="24.030189"
     inkscape:cy="24"
     inkscape:window-width="1920"
     inkscape:window-height="1006"
     inkscape:window-x="0"
     inkscape:window-y="0"
     inkscape:window-maximized="1"
     inkscape:current-layer="layer1" />
  <defs
     id="defs1" />
  <g
     inkscape:label="Katman 1"
     inkscape:groupmode="layer"
     id="layer1">
    <path
       id="path1"
       style="fill:#ffffff;stroke-width:0"
       d="M 24 3 A 21 21 0 0 0 3 24 A 21 21 0 0 0 24 45 A 21 21 0 0 0 45 24 A 21 21 0 0 0 24 3 z M 24 8 A 16 16 0 0 1 40 24 A 16 16 0 0 1 24 40 A 16 16 0 0 1 8 24 A 16 16 0 0 1 24 8 z " />
    <rect
       style="fill:#ffffff;stroke-width:0"
       id="rect1"
       width="9"
       height="16"
       x="19.5"
       y="21"
       ry="4.5" />
    <circle
       style="fill:#ffffff;stroke-width:0"
       id="path2"
       cx="24"
       cy="14"
       r="3" />
  </g>
</svg>
