<?xml version="1.0" encoding="UTF-8" standalone="no"?>
<!-- Created with Inkscape (http://www.inkscape.org/) -->

<svg
   width="48"
   height="48"
   viewBox="0 0 48 48"
   version="1.1"
   id="svg1"
   inkscape:version="1.4 (e7c3feb, 2024-10-09)"
   sodipodi:docname="io.github.mukonqi.nottodbox_settings_lighti.svg"
   xmlns:inkscape="http://www.inkscape.org/namespaces/inkscape"
   xmlns:sodipodi="http://sodipodi.sourceforge.net/DTD/sodipodi-0.dtd"
   xmlns="http://www.w3.org/2000/svg"
   xmlns:svg="http://www.w3.org/2000/svg">
  <sodipodi:namedview
     id="namedview1"
     pagecolor="#505050"
     bordercolor="#eeeeee"
     borderopacity="1"
     inkscape:showpageshadow="0"
     inkscape:pageopacity="0"
     inkscape:pagecheckerboard="0"
     inkscape:deskcolor="#505050"
     inkscape:document-units="px"
     inkscape:zoom="16.5625"
     inkscape:cx="24.030189"
     inkscape:cy="24"
     inkscape:window-width="1920"
     inkscape:window-height="1006"
     inkscape:window-x="0"
     inkscape:window-y="0"
     inkscape:window-maximized="1"
     inkscape:current-layer="layer1" />
  <defs
     id="defs1" />
  <g
     inkscape:label="Katman 1"
     inkscape:groupmode="layer"
     id="layer1">
    <path
       id="path1"
       style="fill:#000000;stroke-width:0"
       d="M 24 8 A 16 16 0 0 0 8 24 A 16 16 0 0 0 24 40 A 16 16 0 0 0 40 24 A 16 16 0 0 0 24 8 z M 24 14 A 10 10 0 0 1 34 24 A 10 10 0 0 1 24 34 A 10 10 0 0 1 14 24 A 10 10 0 0 1 24 14 z " />
    <rect
       style="fill:#000000;stroke-width:0"
       id="rect2"
       width="6"
       height="9"
       x="21"
       y="3"
       ry="3" />
    <rect
       style="fill:#000000;stroke-width:0"
       id="rect3"
       width="6"
       height="9"
       x="21"
       y="-12"
       transform="rotate(90)"
       ry="3" />
    <rect
       style="fill:#000000;stroke-width:0"
       id="rect4"
       width="6"
       height="9"
       x="21"
       y="-45"
       transform="rotate(90)"
       ry="3" />
    <rect
       style="fill:#000000;stroke-width:0"
       id="rect5"
       width="6"
       height="9"
       x="21"
       y="36"
       ry="3" />
  </g>
</svg>
